<?xml version="1.0" encoding="utf-8"?>
<!-- Generator: Adobe Illustrator 16.0.0, SVG Export Plug-In . SVG Version: 6.00 Build 0)  -->
<!DOCTYPE svg PUBLIC "-//W3C//DTD SVG 1.1//EN" "http://www.w3.org/Graphics/SVG/1.1/DTD/svg11.dtd">
<svg version="1.1" id="Layer_1" xmlns="http://www.w3.org/2000/svg" xmlns:xlink="http://www.w3.org/1999/xlink" x="0px" y="0px"
	 width="24px" height="24px" viewBox="0 0 24 24" enable-background="new 0 0 24 24" xml:space="preserve">
<path fill="#FFFFFF" d="M20.259,0H3.632C1.626,0,0,1.625,0,3.629v16.63c0,2.004,1.626,3.63,3.632,3.63h8.679v-9.153H9.233v-3.567
	h3.078V8.538c0-3.054,1.866-4.716,4.587-4.716c1.306,0,2.427,0.098,2.749,0.14v3.191h-1.882c-1.485,0-1.771,0.703-1.771,1.74v2.275
	h3.529l-0.462,3.567h-3.065v9.153h4.263c2.006,0,3.628-1.626,3.628-3.63V3.629C23.887,1.625,22.265,0,20.259,0z"/>
<g>
</g>
<g>
</g>
<g>
</g>
<g>
</g>
<g>
</g>
<g>
</g>
</svg>
