<?xml version="1.0" encoding="utf-8"?>
<!-- Generator: Adobe Illustrator 16.0.0, SVG Export Plug-In . SVG Version: 6.00 Build 0)  -->
<!DOCTYPE svg PUBLIC "-//W3C//DTD SVG 1.1//EN" "http://www.w3.org/Graphics/SVG/1.1/DTD/svg11.dtd">
<svg version="1.1" id="Layer_1" xmlns="http://www.w3.org/2000/svg" xmlns:xlink="http://www.w3.org/1999/xlink" x="0px" y="0px"
	 width="24px" height="24px" viewBox="0 0 24 24" enable-background="new 0 0 24 24" xml:space="preserve">
<path fill="#FFFFFF" d="M3.159,0.061h17.748c1.686,0,3.064,1.379,3.064,3.064v17.753c0,1.684-1.379,3.062-3.064,3.062H3.159
	c-1.688,0-3.068-1.379-3.068-3.062V3.125C0.09,1.443,1.47,0.061,3.159,0.061z M17.486,2.715c-0.594,0-1.078,0.484-1.078,1.076v2.572
	c0,0.592,0.484,1.076,1.078,1.076h2.697c0.592,0,1.076-0.484,1.076-1.076V3.791c0-0.592-0.484-1.076-1.076-1.076H17.486z
	 M21.268,10.158H19.17c0.197,0.652,0.311,1.337,0.311,2.05c0,3.972-3.324,7.191-7.426,7.191c-4.096,0-7.425-3.219-7.425-7.191
	c0-0.713,0.109-1.398,0.311-2.05H2.749v10.089c0,0.521,0.426,0.947,0.945,0.947h16.63c0.525,0,0.947-0.426,0.947-0.947
	L21.268,10.158L21.268,10.158z M12.052,7.305c-2.649,0-4.797,2.08-4.797,4.646s2.148,4.65,4.797,4.65
	c2.651,0,4.795-2.084,4.795-4.65C16.846,9.383,14.701,7.305,12.052,7.305z"/>
<g>
</g>
<g>
</g>
<g>
</g>
<g>
</g>
<g>
</g>
<g>
</g>
</svg>
