<?xml version="1.0" encoding="utf-8"?>
<!-- Generator: Adobe Illustrator 16.0.0, SVG Export Plug-In . SVG Version: 6.00 Build 0)  -->
<!DOCTYPE svg PUBLIC "-//W3C//DTD SVG 1.1//EN" "http://www.w3.org/Graphics/SVG/1.1/DTD/svg11.dtd">
<svg version="1.1" id="Layer_1" xmlns="http://www.w3.org/2000/svg" xmlns:xlink="http://www.w3.org/1999/xlink" x="0px" y="0px"
	 width="64px" height="52px" viewBox="0 0 64 52" enable-background="new 0 0 64 52" xml:space="preserve">
<g>
	<g>
		<path fill="#FFFFFF" d="M10.351,21.479c0.533,0.227,1.16,0.341,1.88,0.341c1.04,0,1.927-0.271,2.66-0.81
			c0.733-0.541,1.213-1.297,1.44-2.271l-2.181-0.7c-0.093,0.494-0.313,0.881-0.659,1.16c-0.348,0.279-0.768,0.42-1.261,0.42
			c-0.333,0-0.623-0.057-0.87-0.17c-0.246-0.113-0.453-0.27-0.619-0.471c-0.167-0.199-0.29-0.433-0.37-0.699
			c-0.08-0.266-0.12-0.547-0.12-0.84V11.9c0-0.24,0.04-0.479,0.12-0.72c0.08-0.241,0.199-0.457,0.359-0.65
			c0.16-0.193,0.363-0.35,0.61-0.471c0.246-0.119,0.543-0.18,0.89-0.18c0.293,0,0.554,0.047,0.78,0.141
			c0.226,0.094,0.42,0.217,0.58,0.369c0.16,0.154,0.286,0.324,0.38,0.511c0.093,0.187,0.16,0.38,0.2,0.579l2.18-0.719
			c-0.227-0.881-0.689-1.613-1.39-2.201c-0.7-0.586-1.61-0.879-2.73-0.879c-0.733,0-1.366,0.119-1.899,0.359
			C9.797,8.28,9.354,8.6,9.001,9c-0.354,0.4-0.617,0.86-0.79,1.38c-0.174,0.521-0.26,1.054-0.26,1.6v5.4
			c0,0.627,0.086,1.211,0.26,1.75c0.173,0.541,0.439,1.01,0.8,1.41C9.372,20.94,9.818,21.252,10.351,21.479z"/>
		<path fill="#FFFFFF" d="M19.441,20.45c0.34,0.42,0.783,0.754,1.33,1c0.546,0.247,1.2,0.37,1.96,0.37c0.626,0,1.2-0.101,1.72-0.3
			c0.521-0.2,0.97-0.49,1.351-0.87c0.38-0.38,0.673-0.837,0.88-1.37c0.206-0.533,0.31-1.133,0.31-1.801v-5.5
			c0-0.52-0.083-1.035-0.25-1.549c-0.167-0.514-0.427-0.974-0.78-1.381c-0.354-0.406-0.797-0.736-1.33-0.99
			c-0.533-0.252-1.166-0.379-1.899-0.379c-0.787,0-1.45,0.133-1.99,0.399S19.761,8.686,19.42,9.1
			c-0.34,0.413-0.587,0.873-0.739,1.379c-0.153,0.508-0.23,1.008-0.23,1.5v5.261c0,0.613,0.08,1.196,0.24,1.75
			C18.851,19.544,19.101,20.03,19.441,20.45z M20.811,11.283c0.066-0.241,0.177-0.464,0.33-0.671
			c0.152-0.207,0.359-0.381,0.62-0.521c0.26-0.141,0.583-0.211,0.97-0.211s0.703,0.077,0.95,0.23
			c0.246,0.154,0.442,0.338,0.59,0.551c0.146,0.215,0.25,0.438,0.31,0.672c0.061,0.234,0.09,0.438,0.09,0.611v5.732
			c0,0.614-0.189,1.099-0.569,1.453s-0.83,0.53-1.351,0.53c-0.733,0-1.253-0.228-1.56-0.681c-0.307-0.455-0.46-1.016-0.46-1.684
			l-0.021-5.332C20.71,11.75,20.744,11.524,20.811,11.283z"/>
		<polygon fill="#FFFFFF" points="36.731,16.559 36.651,16.58 35.011,13.459 31.931,7.78 29.831,7.78 29.831,21.7 32.13,21.7 
			32.13,12.879 32.191,12.86 33.651,15.719 36.931,21.7 39.011,21.7 39.011,7.78 36.731,7.78 		"/>
		<polygon fill="#FFFFFF" points="11.051,25.809 8.771,25.809 8.771,39.729 16.431,39.729 16.431,37.568 11.051,37.568 		"/>
		<path fill="#FFFFFF" d="M21.891,25.809L17.87,39.729h2.381c0.039-0.119,0.096-0.319,0.17-0.601c0.072-0.278,0.152-0.58,0.24-0.899
			c0.086-0.319,0.17-0.619,0.25-0.899s0.133-0.479,0.159-0.601h3.86l0.779,3h2.42L24.09,25.809H21.891z M21.571,34.689l0.72-2.801
			l0.66-2.92h0.1c0.014,0.119,0.054,0.316,0.121,0.59c0.066,0.273,0.137,0.563,0.209,0.871c0.074,0.307,0.141,0.6,0.201,0.879
			s0.103,0.479,0.129,0.601l0.701,2.78H21.571z"/>
		<path fill="#FFFFFF" d="M37.783,33.708c-0.154-0.278-0.351-0.522-0.59-0.729c-0.24-0.207-0.527-0.362-0.861-0.471v-0.1
			c0.641-0.293,1.084-0.688,1.33-1.18c0.247-0.494,0.371-1.033,0.371-1.621c0-1.172-0.33-2.101-0.99-2.779
			c-0.66-0.679-1.65-1.02-2.971-1.02h-4.26v13.92h4.48c1.199,0,2.156-0.354,2.869-1.062c0.714-0.706,1.07-1.728,1.07-3.06
			c0-0.334-0.037-0.664-0.109-0.99C38.048,34.292,37.935,33.989,37.783,33.708z M32.092,27.889h1.8c0.666,0,1.15,0.159,1.45,0.479
			c0.3,0.319,0.45,0.76,0.45,1.319c0,0.547-0.15,0.99-0.45,1.33c-0.3,0.34-0.776,0.51-1.431,0.51h-1.819V27.889z M35.902,36.283
			c-0.06,0.255-0.163,0.479-0.31,0.673c-0.147,0.194-0.34,0.346-0.58,0.452c-0.239,0.107-0.54,0.16-0.899,0.16h-2.021v-4.061h2
			c0.681,0,1.167,0.182,1.46,0.543c0.293,0.362,0.439,0.838,0.439,1.428C35.992,35.76,35.962,36.027,35.902,36.283z"/>
		<path fill="#FFFFFF" d="M47,3.762V0h-2H2H0v48h2h1.929v3.762h43h4v-48H47z M2,2h43v44H2V2z"/>
	</g>
</g>
</svg>
