<?xml version="1.0" encoding="utf-8"?>
<!-- Generator: Adobe Illustrator 16.0.0, SVG Export Plug-In . SVG Version: 6.00 Build 0)  -->
<!DOCTYPE svg PUBLIC "-//W3C//DTD SVG 1.1//EN" "http://www.w3.org/Graphics/SVG/1.1/DTD/svg11.dtd">
<svg version="1.1" id="Layer_1" xmlns="http://www.w3.org/2000/svg" xmlns:xlink="http://www.w3.org/1999/xlink" x="0px" y="0px"
	 width="160px" height="52px" viewBox="0 0 160 52" enable-background="new 0 0 160 52" xml:space="preserve">
<g>
	<g>
		<path d="M69.678,10.352c-0.325-0.28-0.707-0.488-1.146-0.623s-0.865-0.203-1.281-0.203c-0.292,0-0.581,0.046-0.868,0.136
			c-0.286,0.09-0.542,0.23-0.767,0.421c-0.225,0.191-0.407,0.438-0.548,0.741c-0.141,0.304-0.211,0.669-0.211,1.096v3.523
			c0,0.427,0.07,0.792,0.211,1.096c0.141,0.303,0.326,0.55,0.556,0.741c0.23,0.191,0.486,0.332,0.768,0.421
			c0.28,0.091,0.562,0.136,0.843,0.136c0.415,0,0.837-0.06,1.264-0.178s0.832-0.328,1.214-0.632l0.91,1.483
			c-0.394,0.326-0.888,0.59-1.483,0.792s-1.23,0.304-1.904,0.304c-0.562,0-1.102-0.082-1.618-0.244
			c-0.517-0.163-0.973-0.405-1.368-0.726s-0.713-0.716-0.953-1.188c-0.239-0.473-0.358-1.012-0.358-1.618v-4.299
			c0-0.606,0.119-1.143,0.358-1.609c0.24-0.466,0.558-0.859,0.953-1.18s0.852-0.564,1.368-0.733s1.051-0.253,1.602-0.253
			c0.64,0,1.255,0.09,1.845,0.27c0.591,0.181,1.11,0.455,1.56,0.826L69.678,10.352z"/>
		<path d="M80.786,15.729c0,0.606-0.112,1.152-0.336,1.635c-0.225,0.483-0.536,0.891-0.934,1.223
			c-0.398,0.331-0.864,0.584-1.396,0.758c-0.533,0.175-1.103,0.262-1.708,0.262c-0.616,0-1.191-0.087-1.724-0.262
			c-0.533-0.174-0.993-0.427-1.38-0.758c-0.387-0.332-0.692-0.739-0.917-1.223c-0.225-0.482-0.336-1.028-0.336-1.635v-4.13
			c0-0.606,0.114-1.146,0.345-1.618c0.229-0.472,0.541-0.873,0.934-1.205c0.393-0.331,0.853-0.584,1.379-0.758
			c0.527-0.175,1.094-0.262,1.699-0.262c0.595,0,1.158,0.09,1.691,0.27c0.532,0.181,0.998,0.436,1.396,0.768
			c0.398,0.331,0.713,0.735,0.942,1.213c0.229,0.479,0.345,1.021,0.345,1.627V15.729z M78.865,11.919
			c0-0.415-0.068-0.775-0.203-1.078c-0.136-0.304-0.316-0.554-0.541-0.75c-0.226-0.197-0.488-0.34-0.787-0.43
			s-0.605-0.136-0.922-0.136c-0.327,0-0.637,0.046-0.93,0.136c-0.294,0.09-0.55,0.232-0.77,0.43
			c-0.221,0.196-0.397,0.446-0.533,0.75c-0.136,0.303-0.203,0.663-0.203,1.078v3.523c0,0.427,0.067,0.792,0.203,1.096
			c0.136,0.303,0.315,0.55,0.541,0.741s0.485,0.332,0.778,0.421c0.293,0.091,0.598,0.136,0.913,0.136
			c0.316,0,0.623-0.045,0.922-0.136c0.299-0.089,0.562-0.229,0.787-0.421c0.225-0.191,0.405-0.438,0.541-0.741
			c0.135-0.304,0.203-0.669,0.203-1.096V11.919z"/>
		<path d="M84.613,11.515v7.973h-1.922V7.874h1.787l3.455,5.141l1.871,2.883h0.102V7.874h1.921v11.613h-1.804l-3.506-5.226
			l-1.786-2.747H84.613z"/>
		<path d="M100.506,10.352c-0.325-0.28-0.707-0.488-1.146-0.623s-0.865-0.203-1.281-0.203c-0.292,0-0.581,0.046-0.868,0.136
			c-0.286,0.09-0.542,0.23-0.767,0.421c-0.225,0.191-0.407,0.438-0.548,0.741c-0.141,0.304-0.211,0.669-0.211,1.096v3.523
			c0,0.427,0.07,0.792,0.211,1.096c0.141,0.303,0.326,0.55,0.556,0.741c0.23,0.191,0.486,0.332,0.768,0.421
			c0.28,0.091,0.562,0.136,0.843,0.136c0.415,0,0.837-0.06,1.264-0.178s0.832-0.328,1.214-0.632l0.91,1.483
			c-0.394,0.326-0.888,0.59-1.483,0.792s-1.23,0.304-1.904,0.304c-0.562,0-1.102-0.082-1.618-0.244
			c-0.517-0.163-0.973-0.405-1.368-0.726s-0.713-0.716-0.953-1.188c-0.239-0.473-0.358-1.012-0.358-1.618v-4.299
			c0-0.606,0.119-1.143,0.358-1.609c0.24-0.466,0.558-0.859,0.953-1.18s0.852-0.564,1.368-0.733s1.051-0.253,1.602-0.253
			c0.64,0,1.255,0.09,1.845,0.27c0.591,0.181,1.11,0.455,1.56,0.826L100.506,10.352z"/>
		<path d="M107.957,7.874c0.584,0,1.084,0.106,1.5,0.32s0.759,0.491,1.028,0.834s0.469,0.725,0.599,1.146
			c0.129,0.421,0.193,0.84,0.193,1.256c0,0.314-0.045,0.632-0.135,0.952s-0.219,0.624-0.388,0.91s-0.374,0.545-0.615,0.775
			s-0.52,0.419-0.834,0.564l2.123,4.854h-2.09l-1.911-4.518h-2.556v4.518h-1.921V7.874H107.957z M109.389,11.431
			c0-0.545-0.166-0.984-0.499-1.318c-0.333-0.335-0.787-0.502-1.362-0.502h-2.656v3.624h2.656c0.575,0,1.029-0.165,1.362-0.493
			C109.223,12.412,109.389,11.976,109.389,11.431z"/>
		<path d="M112.844,7.874h7.871V9.61h-5.95v3.186h5.091v1.736h-5.091v3.219h5.95v1.736h-7.871V7.874z"/>
		<path d="M126.75,9.61v9.877h-1.922V9.61h-3.219V7.874h8.343V9.61H126.75z"/>
		<path d="M131.233,7.874h7.871V9.61h-5.95v3.186h5.091v1.736h-5.091v3.219h5.95v1.736h-7.871V7.874z"/>
		<path d="M63.072,39.487V27.874h1.921v9.877h5.983v1.736H63.072z"/>
		<path d="M78.46,36.976h-4.332l-0.826,2.512h-2.039l4.062-11.613h1.955l4.062,11.613h-2.09L78.46,36.976z M74.684,35.308h3.22
			l-0.691-2.175l-0.893-2.949h-0.068l-0.859,2.831L74.684,35.308z"/>
		<path d="M91.017,36.065c0,0.438-0.07,0.862-0.211,1.272c-0.141,0.411-0.352,0.775-0.632,1.096c-0.281,0.32-0.63,0.576-1.045,0.768
			c-0.416,0.19-0.894,0.286-1.433,0.286h-5.226V27.874h5.022c0.551,0,1.037,0.084,1.458,0.253c0.422,0.169,0.77,0.396,1.046,0.683
			c0.274,0.286,0.482,0.615,0.623,0.986c0.141,0.37,0.211,0.764,0.211,1.18c0,0.449-0.112,0.896-0.337,1.34
			c-0.226,0.444-0.59,0.807-1.096,1.087c0.562,0.281,0.972,0.672,1.23,1.172C90.887,35.074,91.017,35.571,91.017,36.065z
			 M88.876,31.11c0-0.517-0.161-0.896-0.482-1.138s-0.77-0.362-1.345-0.362h-2.656v2.983h2.74c0.508,0,0.925-0.129,1.252-0.388
			S88.876,31.582,88.876,31.11z M89.028,36.023c0-0.537-0.183-0.962-0.548-1.274c-0.365-0.313-0.801-0.47-1.306-0.47h-2.781v3.472
			h2.798c0.606,0,1.064-0.153,1.373-0.461C88.874,36.982,89.028,36.561,89.028,36.023z"/>
		<path d="M101.366,35.729c0,0.606-0.112,1.152-0.336,1.635c-0.225,0.483-0.536,0.891-0.934,1.223
			c-0.398,0.331-0.864,0.584-1.396,0.758c-0.533,0.175-1.103,0.262-1.708,0.262c-0.616,0-1.191-0.087-1.724-0.262
			c-0.533-0.174-0.993-0.427-1.38-0.758c-0.387-0.332-0.692-0.739-0.917-1.223c-0.225-0.482-0.336-1.028-0.336-1.635v-4.13
			c0-0.606,0.114-1.146,0.345-1.618c0.229-0.472,0.541-0.873,0.934-1.205c0.393-0.331,0.853-0.584,1.379-0.758
			c0.527-0.175,1.094-0.262,1.699-0.262c0.595,0,1.158,0.09,1.691,0.27c0.532,0.181,0.998,0.436,1.396,0.768
			c0.398,0.331,0.713,0.735,0.942,1.213c0.229,0.479,0.345,1.021,0.345,1.627V35.729z M99.445,31.919
			c0-0.415-0.068-0.775-0.203-1.078c-0.136-0.304-0.316-0.554-0.541-0.75c-0.226-0.197-0.488-0.34-0.787-0.43
			s-0.605-0.136-0.922-0.136c-0.327,0-0.637,0.046-0.93,0.136c-0.294,0.09-0.55,0.232-0.77,0.43
			c-0.221,0.196-0.397,0.446-0.533,0.75c-0.136,0.303-0.203,0.663-0.203,1.078v3.523c0,0.427,0.067,0.792,0.203,1.096
			c0.136,0.303,0.315,0.55,0.541,0.741s0.485,0.332,0.778,0.421c0.293,0.091,0.598,0.136,0.913,0.136
			c0.316,0,0.623-0.045,0.922-0.136c0.299-0.089,0.562-0.229,0.787-0.421c0.225-0.191,0.405-0.438,0.541-0.741
			c0.135-0.304,0.203-0.669,0.203-1.096V31.919z"/>
		<path d="M108.243,27.874c0.584,0,1.084,0.106,1.5,0.32s0.759,0.491,1.028,0.834s0.469,0.725,0.599,1.146
			c0.129,0.421,0.193,0.84,0.193,1.256c0,0.314-0.045,0.632-0.135,0.952s-0.219,0.624-0.388,0.91s-0.374,0.545-0.615,0.775
			s-0.52,0.419-0.834,0.564l2.123,4.854h-2.09l-1.911-4.518h-2.556v4.518h-1.921V27.874H108.243z M109.675,31.431
			c0-0.545-0.166-0.984-0.499-1.318c-0.333-0.335-0.787-0.502-1.362-0.502h-2.656v3.624h2.656c0.575,0,1.029-0.165,1.362-0.493
			C109.509,32.412,109.675,31.976,109.675,31.431z"/>
		<path d="M119.469,36.976h-4.332l-0.826,2.512h-2.039l4.062-11.613h1.955l4.062,11.613h-2.09L119.469,36.976z M115.693,35.308h3.22
			l-0.691-2.175l-0.893-2.949h-0.068l-0.859,2.831L115.693,35.308z"/>
		<path d="M126.868,29.61v9.877h-1.922V29.61h-3.219v-1.736h8.343v1.736H126.868z"/>
		<path d="M139.61,35.729c0,0.606-0.112,1.152-0.336,1.635c-0.225,0.483-0.536,0.891-0.934,1.223
			c-0.398,0.331-0.864,0.584-1.396,0.758c-0.533,0.175-1.103,0.262-1.708,0.262c-0.616,0-1.191-0.087-1.724-0.262
			c-0.533-0.174-0.993-0.427-1.38-0.758c-0.387-0.332-0.692-0.739-0.917-1.223c-0.225-0.482-0.336-1.028-0.336-1.635v-4.13
			c0-0.606,0.114-1.146,0.345-1.618c0.229-0.472,0.541-0.873,0.934-1.205c0.393-0.331,0.853-0.584,1.379-0.758
			c0.527-0.175,1.094-0.262,1.699-0.262c0.595,0,1.158,0.09,1.691,0.27c0.532,0.181,0.998,0.436,1.396,0.768
			c0.398,0.331,0.713,0.735,0.942,1.213c0.229,0.479,0.345,1.021,0.345,1.627V35.729z M137.689,31.919
			c0-0.415-0.068-0.775-0.203-1.078c-0.136-0.304-0.316-0.554-0.541-0.75c-0.226-0.197-0.488-0.34-0.787-0.43
			s-0.605-0.136-0.922-0.136c-0.327,0-0.637,0.046-0.93,0.136c-0.294,0.09-0.55,0.232-0.77,0.43
			c-0.221,0.196-0.397,0.446-0.533,0.75c-0.136,0.303-0.203,0.663-0.203,1.078v3.523c0,0.427,0.067,0.792,0.203,1.096
			c0.136,0.303,0.315,0.55,0.541,0.741s0.485,0.332,0.778,0.421c0.293,0.091,0.598,0.136,0.913,0.136
			c0.316,0,0.623-0.045,0.922-0.136c0.299-0.089,0.562-0.229,0.787-0.421c0.225-0.191,0.405-0.438,0.541-0.741
			c0.135-0.304,0.203-0.669,0.203-1.096V31.919z"/>
		<path d="M146.487,27.874c0.584,0,1.084,0.106,1.5,0.32s0.759,0.491,1.028,0.834s0.469,0.725,0.599,1.146
			c0.129,0.421,0.193,0.84,0.193,1.256c0,0.314-0.045,0.632-0.135,0.952s-0.219,0.624-0.388,0.91s-0.374,0.545-0.615,0.775
			s-0.52,0.419-0.834,0.564l2.123,4.854h-2.09l-1.911-4.518h-2.556v4.518h-1.921V27.874H146.487z M147.919,31.431
			c0-0.545-0.166-0.984-0.499-1.318c-0.333-0.335-0.787-0.502-1.362-0.502h-2.656v3.624h2.656c0.575,0,1.029-0.165,1.362-0.493
			C147.753,32.412,147.919,31.976,147.919,31.431z"/>
		<path d="M154.754,33.049l1.104-2.528l1.247-2.646h2.057l-3.506,7.113v4.5h-1.922v-4.5l-3.539-7.113h2.09l1.265,2.714l1.087,2.461
			H154.754z"/>
	</g>
	<g>
		<path d="M10.351,21.479c0.533,0.227,1.16,0.341,1.88,0.341c1.04,0,1.927-0.271,2.66-0.81c0.733-0.541,1.213-1.297,1.44-2.271
			l-2.181-0.7c-0.093,0.494-0.313,0.881-0.659,1.16c-0.348,0.279-0.768,0.42-1.261,0.42c-0.333,0-0.623-0.057-0.87-0.17
			c-0.246-0.113-0.453-0.27-0.619-0.471c-0.167-0.199-0.29-0.433-0.37-0.699s-0.12-0.547-0.12-0.84V11.9
			c0-0.24,0.04-0.479,0.12-0.72s0.199-0.457,0.359-0.65s0.363-0.35,0.61-0.471c0.246-0.119,0.543-0.18,0.89-0.18
			c0.293,0,0.554,0.047,0.78,0.141s0.42,0.217,0.58,0.369c0.16,0.154,0.286,0.324,0.38,0.511c0.093,0.187,0.16,0.38,0.2,0.579
			l2.18-0.719c-0.227-0.881-0.689-1.613-1.39-2.201c-0.7-0.586-1.61-0.879-2.73-0.879c-0.733,0-1.366,0.119-1.899,0.359
			C9.797,8.28,9.354,8.6,9.001,9c-0.354,0.4-0.617,0.86-0.79,1.38c-0.174,0.521-0.26,1.054-0.26,1.6v5.4
			c0,0.627,0.086,1.211,0.26,1.75c0.173,0.541,0.439,1.01,0.8,1.41S9.818,21.252,10.351,21.479z"/>
		<path d="M19.441,20.45c0.34,0.42,0.783,0.754,1.33,1c0.546,0.247,1.2,0.37,1.96,0.37c0.626,0,1.2-0.101,1.72-0.3
			c0.521-0.2,0.97-0.49,1.351-0.87c0.38-0.38,0.673-0.837,0.88-1.37c0.206-0.533,0.31-1.133,0.31-1.801v-5.5
			c0-0.52-0.083-1.035-0.25-1.549s-0.427-0.974-0.78-1.381c-0.354-0.406-0.797-0.736-1.33-0.99
			c-0.533-0.252-1.166-0.379-1.899-0.379c-0.787,0-1.45,0.133-1.99,0.399S19.761,8.686,19.42,9.1
			c-0.34,0.413-0.587,0.873-0.739,1.379c-0.153,0.508-0.23,1.008-0.23,1.5v5.261c0,0.613,0.08,1.196,0.24,1.75
			S19.101,20.03,19.441,20.45z M20.811,11.283c0.066-0.241,0.177-0.464,0.33-0.671c0.152-0.207,0.359-0.381,0.62-0.521
			c0.26-0.141,0.583-0.211,0.97-0.211s0.703,0.077,0.95,0.23c0.246,0.154,0.442,0.338,0.59,0.551c0.146,0.215,0.25,0.438,0.31,0.672
			c0.061,0.234,0.09,0.438,0.09,0.611v5.732c0,0.614-0.189,1.099-0.569,1.453c-0.38,0.354-0.83,0.53-1.351,0.53
			c-0.733,0-1.253-0.228-1.56-0.681c-0.307-0.455-0.46-1.016-0.46-1.684l-0.021-5.332C20.71,11.75,20.744,11.524,20.811,11.283z"/>
		<polygon points="36.731,16.559 36.651,16.58 35.011,13.459 31.931,7.78 29.831,7.78 29.831,21.7 32.13,21.7 32.13,12.879 
			32.191,12.86 33.651,15.719 36.931,21.7 39.011,21.7 39.011,7.78 36.731,7.78 		"/>
		<polygon points="11.051,25.809 8.771,25.809 8.771,39.729 16.431,39.729 16.431,37.569 11.051,37.569 		"/>
		<path d="M21.891,25.809l-4.021,13.92h2.381c0.039-0.12,0.096-0.32,0.17-0.601c0.072-0.279,0.152-0.58,0.24-0.899
			c0.086-0.32,0.17-0.62,0.25-0.9s0.133-0.479,0.159-0.6h3.86l0.779,3h2.42l-4.039-13.92H21.891z M21.571,34.689l0.72-2.8l0.66-2.92
			h0.1c0.014,0.119,0.054,0.316,0.121,0.59c0.066,0.273,0.137,0.563,0.209,0.87c0.074,0.307,0.141,0.6,0.201,0.88
			c0.06,0.279,0.103,0.479,0.129,0.6l0.701,2.78H21.571z"/>
		<path d="M37.783,33.708c-0.154-0.279-0.351-0.522-0.59-0.729c-0.24-0.207-0.527-0.363-0.861-0.471v-0.1
			c0.641-0.293,1.084-0.687,1.33-1.18c0.247-0.493,0.371-1.033,0.371-1.62c0-1.173-0.33-2.101-0.99-2.78s-1.65-1.02-2.971-1.02
			h-4.26v13.92h4.48c1.199,0,2.156-0.354,2.869-1.061c0.714-0.706,1.07-1.727,1.07-3.06c0-0.333-0.037-0.663-0.109-0.99
			C38.048,34.292,37.935,33.989,37.783,33.708z M32.092,27.889h1.8c0.666,0,1.15,0.159,1.45,0.479s0.45,0.76,0.45,1.32
			c0,0.547-0.15,0.99-0.45,1.33s-0.776,0.51-1.431,0.51h-1.819V27.889z M35.902,36.283c-0.06,0.255-0.163,0.479-0.31,0.673
			c-0.147,0.194-0.34,0.346-0.58,0.452c-0.239,0.107-0.54,0.161-0.899,0.161h-2.021v-4.061h2c0.681,0,1.167,0.182,1.46,0.543
			c0.293,0.362,0.439,0.838,0.439,1.427C35.992,35.76,35.962,36.028,35.902,36.283z"/>
		<path d="M47,3.762V0h-2H2H0v48h2h1.929v3.762h43h4v-48H47z M2,2h43v44H2V2z"/>
	</g>
</g>
<g>
</g>
<g>
</g>
<g>
</g>
<g>
</g>
<g>
</g>
<g>
</g>
</svg>
