<?xml version="1.0" encoding="utf-8"?>
<!-- Generator: Adobe Illustrator 16.0.0, SVG Export Plug-In . SVG Version: 6.00 Build 0)  -->
<!DOCTYPE svg PUBLIC "-//W3C//DTD SVG 1.1//EN" "http://www.w3.org/Graphics/SVG/1.1/DTD/svg11.dtd">
<svg version="1.1" id="Layer_1" xmlns="http://www.w3.org/2000/svg" xmlns:xlink="http://www.w3.org/1999/xlink" x="0px" y="0px"
	 width="24px" height="24px" viewBox="0 0 24 24" enable-background="new 0 0 24 24" xml:space="preserve">
<path fill="#FFFFFF" d="M16.423,18.544l-0.177,0.126c-1.741,1.242-3.784,1.898-5.906,1.898c-5.647,0-10.242-4.595-10.242-10.243
	c0-5.646,4.594-10.24,10.242-10.24c5.646,0,10.24,4.593,10.24,10.24c0,2.12-0.655,4.163-1.896,5.909l-0.124,0.176l5.312,5.34
	l-2.136,2.136L16.423,18.544z M10.341,2.526c-4.304,0-7.806,3.5-7.806,7.803c0,4.302,3.501,7.802,7.806,7.802
	c4.3,0,7.799-3.5,7.799-7.802C18.141,6.027,14.642,2.526,10.341,2.526z"/>
</svg>
