<?xml version="1.0" encoding="utf-8"?>
<!-- Generator: Adobe Illustrator 16.0.0, SVG Export Plug-In . SVG Version: 6.00 Build 0)  -->
<!DOCTYPE svg PUBLIC "-//W3C//DTD SVG 1.1//EN" "http://www.w3.org/Graphics/SVG/1.1/DTD/svg11.dtd">
<svg version="1.1" id="Layer_1" xmlns="http://www.w3.org/2000/svg" xmlns:xlink="http://www.w3.org/1999/xlink" x="0px" y="0px"
	 width="30px" height="24px" viewBox="-0.343 0 30 24" enable-background="new -0.343 0 30 24" xml:space="preserve">
<path fill="#FFFFFF" d="M29.314,2.908c-1.076,0.477-2.236,0.801-3.453,0.945c1.24-0.745,2.197-1.919,2.646-3.325
	c-1.161,0.688-2.444,1.189-3.815,1.459C23.593,0.819,22.031,0.09,20.3,0.09c-3.321,0-6.014,2.69-6.014,6.011
	c0,0.474,0.053,0.933,0.156,1.373C9.445,7.223,5.015,4.83,2.049,1.191c-0.52,0.886-0.813,1.921-0.813,3.022
	c0,2.088,1.06,3.926,2.675,5.002C2.922,9.187,1.995,8.914,1.184,8.464V8.54c0,2.917,2.071,5.345,4.821,5.897
	c-0.502,0.135-1.037,0.213-1.587,0.213c-0.388,0-0.765-0.041-1.13-0.111c0.766,2.393,2.984,4.127,5.618,4.18
	c-2.058,1.609-4.649,2.572-7.472,2.572c-0.482,0-0.961-0.029-1.437-0.082c2.666,1.705,5.828,2.701,9.226,2.701
	c11.061,0,17.108-9.164,17.108-17.109c0-0.26-0.008-0.519-0.018-0.781C27.488,5.169,28.508,4.114,29.314,2.908z"/>
</svg>
